<!DOCTYPE svg PUBLIC "-//W3C//DTD SVG 20010904//EN" "http://www.w3.org/TR/2001/REC-SVG-20010904/DTD/svg10.dtd"><svg xmlns="http://www.w3.org/2000/svg" width="800" height="800" version="1.0" viewBox="0 0 8000 8000"><g fill="#fff"><path d="M3415 6674c-11-9-63-41-115-71-161-94-333-203-377-239-30-24-66-77-128-187-201-352-231-385-468-513-181-96-892-501-979-556-27-17-48-34-48-40 0-5 18-53 41-106 85-201 169-401 219-522 29-69 76-181 105-250 30-69 84-197 120-285 111-264 195-464 246-582 41-95 47-117 38-139-5-15-14-60-20-100-12-85-7-103 125-449 123-321 161-419 317-810 180-451 202-505 210-502 4 1 38 40 75 87 162 202 604 710 745 856 103 107 137 123 292 137 203 18 422 15 492-6 114-35 195-104 350-297 50-63 225-260 389-438l298-323 20 38c12 21 44 101 73 178s128 331 220 565c345 873 340 859 338 925 0 33-7 101-15 150-18 109-32 64 187 580 87 204 181 426 210 495s94 224 145 345 114 276 141 345l48 125-23 21c-32 29-266 161-796 449-325 177-487 269-507 289-12 11-65 100-119 196-158 286-198 337-322 422-86 58-363 210-370 203s75-306 235-850c164-559 224-755 232-755 4 0 40 81 81 181 41 99 77 182 80 184s125-63 271-143c146-81 307-169 357-197 50-27 92-54 92-58 0-5-48-65-107-135s-113-135-121-144c-12-15 2-27 155-129 92-61 172-115 176-119 5-4-9-50-31-101-21-52-44-107-50-124-6-16-43-109-83-205-187-460-331-682-582-897-37-32-37-33-21-58 9-14 47-56 83-93 37-37 75-84 85-105 42-91 38-225-10-341-50-120-94-244-145-404-28-89-55-162-60-162-15 0-374 427-425 506-9 13-23 68-30 121-20 131-32 173-52 180-68 21-146 69-186 114-81 90-103 149-166 449-17 80-46 215-65 300s-71 322-115 525c-109 503-137 623-153 670l-14 40-21-66c-11-37-50-203-87-370-36-167-93-428-126-579s-85-390-115-530c-87-400-115-451-289-531l-96-44 4-44c8-75-10-171-48-247-28-58-64-103-184-228-82-86-164-179-183-206-18-27-36-50-40-50-9 0-113 266-191 490-91 260-101 294-93 323 6 24 99 145 192 250l43 48-87 87c-165 165-318 396-492 747-123 249-234 512-228 543 4 19 44 44 229 141 66 36 123 70 126 78 3 7-49 76-116 155-67 78-118 145-113 149 4 3 122 71 262 149 411 230 451 252 454 248 2-1 40-91 86-198 45-107 85-199 90-203 4-5 17 29 30 75 20 78 67 246 190 688 29 102 65 232 80 290 16 58 58 213 94 345 37 131 65 245 64 251-2 9-8 9-23-2z"/><path d="M3909 6651c-25-10-67-32-93-50-118-81-222-282-214-413l3-53 110 106c125 120 180 149 284 149 112 0 189-40 306-160 39-39 79-76 89-82 18-10 19-7 12 55-30 300-286 530-497 448zM3555 4930c-36-40-141-109-211-139-38-16-123-48-189-71-140-49-162-60-192-92-28-30-171-404-159-416 4-4 220 71 487 169 85 31 146 60 160 75 18 19 34 75 75 252 30 125 52 231 51 235-1 5-11-1-22-13zM4486 4759c54-241 69-292 91-311 25-22 631-243 641-234 12 12-128 388-156 420-21 23-59 40-232 100-167 59-257 106-325 168-29 26-55 48-57 48-3 0 15-86 38-191z"/></g></svg>